HIERARCHY
ROOT joint_Root
{
	OFFSET 0.0 0.0 0.0
	CHANNELS 6 Xposition Yposition Zposition Zrotation Xrotation Yrotation 
	JOINT Hips
	{
		OFFSET -17.1583 93.1646 452.98
		CHANNELS 6 Xposition Yposition Zposition Zrotation Xrotation Yrotation 
		JOINT Spine
		{
			OFFSET 15.7357 0.0 0.0
			CHANNELS 6 Xposition Yposition Zposition Zrotation Xrotation Yrotation 
			JOINT Chest
			{
				OFFSET 8.98455 -0.406207 0.0
				CHANNELS 6 Xposition Yposition Zposition Zrotation Xrotation Yrotation 
				JOINT Neck
				{
					OFFSET 16.3773 0.0 0.0
					CHANNELS 6 Xposition Yposition Zposition Zrotation Xrotation Yrotation 
					JOINT Head
					{
						OFFSET 6.45672 0.0 0.0
						CHANNELS 6 Xposition Yposition Zposition Zrotation Xrotation Yrotation 
						End Site
						{
							OFFSET 0.0 0.0 0.0
						}
					}
				}
				JOINT Shoulder_L
				{
					OFFSET 12.9942 -0.242716 4.98039
					CHANNELS 6 Xposition Yposition Zposition Zrotation Xrotation Yrotation 
					JOINT UpperArm_L
					{
						OFFSET 5.34809 0.0 0.0
						CHANNELS 6 Xposition Yposition Zposition Zrotation Xrotation Yrotation 
						JOINT LowerArm_L
						{
							OFFSET 24.3286 1.87007e-05 0.0
							CHANNELS 6 Xposition Yposition Zposition Zrotation Xrotation Yrotation 
							JOINT Hand_L
							{
								OFFSET 22.2916 0.0 0.0
								CHANNELS 6 Xposition Yposition Zposition Zrotation Xrotation Yrotation 
								End Site
								{
									OFFSET 0.0 0.0 0.0
								}
							}
						}
					}
				}
				JOINT Shoulder_R
				{
					OFFSET 12.9945 -0.242716 -4.98039
					CHANNELS 6 Xposition Yposition Zposition Zrotation Xrotation Yrotation 
					JOINT UpperArm_R
					{
						OFFSET -5.34813 0.0 0.0
						CHANNELS 6 Xposition Yposition Zposition Zrotation Xrotation Yrotation 
						JOINT LowerArm_R
						{
							OFFSET -24.3289 0.000322201 0.0
							CHANNELS 6 Xposition Yposition Zposition Zrotation Xrotation Yrotation 
							JOINT Hand_R
							{
								OFFSET -22.2915 -0.000108084 0.0
								CHANNELS 6 Xposition Yposition Zposition Zrotation Xrotation Yrotation 
								End Site
								{
									OFFSET 0.0 0.0 0.0
								}
							}
						}
					}
				}
			}
		}
		JOINT UpperLeg_L
		{
			OFFSET -2.19248 -6.46944 0.0
			CHANNELS 6 Xposition Yposition Zposition Zrotation Xrotation Yrotation 
			JOINT LowerLeg_L
			{
				OFFSET 39.0811 0.0 -1.23785e-05
				CHANNELS 6 Xposition Yposition Zposition Zrotation Xrotation Yrotation 
				JOINT Foot_L
				{
					OFFSET 40.9854 0.0 -1.26872e-05
					CHANNELS 6 Xposition Yposition Zposition Zrotation Xrotation Yrotation 
					JOINT Toes_L
					{
						OFFSET 11.7543 0.0 0.0
						CHANNELS 6 Xposition Yposition Zposition Zrotation Xrotation Yrotation 
						End Site
						{
							OFFSET 0.0 0.0 0.0
						}
					}
				}
			}
		}
		JOINT UpperLeg_R
		{
			OFFSET -2.19251 6.46944 0.0
			CHANNELS 6 Xposition Yposition Zposition Zrotation Xrotation Yrotation 
			JOINT LowerLeg_R
			{
				OFFSET -39.0811 -0.00228153 -0.0401928
				CHANNELS 6 Xposition Yposition Zposition Zrotation Xrotation Yrotation 
				JOINT Foot_R
				{
					OFFSET -40.9854 0.0 0.0
					CHANNELS 6 Xposition Yposition Zposition Zrotation Xrotation Yrotation 
					JOINT Toes_R
					{
						OFFSET -11.7543 0.0 0.0
						CHANNELS 6 Xposition Yposition Zposition Zrotation Xrotation Yrotation 
						End Site
						{
							OFFSET 0.0 0.0 0.0
						}
					}
				}
			}
		}
	}
}
MOTION
Frames:	4
Frame Time:	0.0333333
0.000000 0.000000 0.000000 0.000000 0.000000 -0.000000 2.576600 92.856900 -0.545544 88.828800 1.585090 5.109940 15.735700 0.000005 -0.000001 103.152000 85.442500 -103.032000 8.984550 -0.406207 -0.000000 1.108630 2.066160 0.221417 16.377300 -0.000001 -0.000001 8.127780 3.095360 -2.874020 6.456720 -0.000001 -0.000000 -8.400540 1.864000 -0.266772 12.994200 -0.242716 4.980390 -93.747600 10.155700 -69.621100 5.348090 -0.000007 -0.000001 -69.307300 10.686300 -8.013560 24.328600 0.000019 0.000005 5.473370 26.323800 -12.196400 22.291600 -0.000001 0.000005 -9.076930 5.051770 6.174410 12.994500 -0.242716 -4.980390 87.542400 7.197630 -71.091100 -5.348130 -0.000001 -0.000004 -68.844100 34.107700 -6.007770 -24.328900 0.000322 -0.000009 0.879495 2.807040 -17.424400 -22.291500 -0.000108 -0.000004 -0.927167 5.294090 0.237757 -2.192480 -6.469440 -0.000000 -175.700000 -8.115500 1.125100 39.081100 -0.000007 -0.000012 0.053635 -0.157700 18.783700 40.985400 -0.000006 -0.000013 2.322820 15.338800 -69.337600 11.754300 -0.000000 0.000003 -0.001295 0.187148 -8.984830 -2.192510 6.469440 -0.000001 173.259000 9.847070 -175.563000 -39.081100 -0.002282 -0.040193 0.001736 0.006690 13.430100 -40.985400 0.000008 0.000006 -8.627330 7.325650 -66.769400 -11.754300 -0.000006 -0.000006 -0.011502 0.282205 -5.104920
0.000000 0.000000 0.000000 0.000000 0.000000 -0.000000 2.615230 92.943200 -0.639749 88.942300 1.526430 4.257440 15.735700 0.000005 -0.000001 103.753000 85.693700 -103.419000 8.984550 -0.406207 -0.000000 0.594439 2.025930 0.657333 16.377300 -0.000001 -0.000001 7.139470 3.415520 -2.247740 6.456720 -0.000001 -0.000000 -10.084500 2.201410 0.968590 12.994200 -0.242716 4.980390 -93.693700 9.886230 -69.393700 5.348090 -0.000007 -0.000001 -68.060900 5.581520 -11.370100 24.328600 0.000019 0.000005 4.041560 31.674400 -7.669550 22.291600 -0.000001 0.000005 -16.885200 5.140130 4.124730 12.994500 -0.242716 -4.980390 87.541900 7.149100 -70.968800 -5.348130 -0.000001 -0.000004 -68.494300 33.700800 -5.717730 -24.328900 0.000322 -0.000009 0.910309 2.751900 -18.331300 -22.291500 -0.000108 -0.000004 -0.663863 5.304310 -0.048646 -2.192480 -6.469440 -0.000000 -175.885000 -8.703740 0.570530 39.081100 -0.000007 -0.000012 0.050602 -0.154783 18.103900 40.985400 -0.000006 -0.000013 2.316510 15.788900 -69.187000 11.754300 -0.000000 0.000003 -0.001282 0.186964 -8.992290 -2.192510 6.469440 -0.000001 173.173000 10.067300 -176.149000 -39.081100 -0.002282 -0.040193 0.000287 0.013535 12.687800 -40.985400 0.000008 0.000006 -9.249610 7.589540 -66.128200 -11.754300 -0.000006 -0.000006 -0.011210 0.280132 -5.189820
0.000000 0.000000 0.000000 0.000000 0.000000 -0.000000 2.608250 93.045600 -0.753110 89.011400 1.653000 3.194280 15.735700 0.000005 -0.000001 103.360000 86.075600 -102.685000 8.984550 -0.406207 -0.000000 -0.139339 1.766670 1.350460 16.377300 -0.000001 -0.000001 5.752280 3.750620 -1.592660 6.456720 -0.000001 -0.000000 -11.642100 2.695560 2.376070 12.994200 -0.242716 4.980390 -93.442200 9.139390 -69.259000 5.348090 -0.000007 -0.000001 -66.540300 -1.907280 -15.562700 24.328600 0.000019 0.000005 1.135530 36.680300 -1.903620 22.291600 -0.000001 0.000005 -25.693700 5.192120 2.925480 12.994500 -0.242716 -4.980390 87.631400 6.828420 -70.817300 -5.348130 -0.000001 -0.000004 -68.307600 33.066600 -5.465610 -24.328900 0.000322 -0.000009 1.021070 2.968880 -19.006900 -22.291500 -0.000108 -0.000004 -0.646133 5.302290 0.007892 -2.192480 -6.469440 -0.000000 -176.000000 -9.494420 -0.172930 39.081100 -0.000007 -0.000012 0.044918 -0.144150 17.307500 40.985400 -0.000006 -0.000013 2.324220 16.669200 -68.953500 11.754300 -0.000000 0.000003 -0.001145 0.185074 -9.069140 -2.192510 6.469440 -0.000001 173.221000 10.422800 -176.821000 -39.081100 -0.002282 -0.040193 0.000130 0.015470 11.708900 -40.985400 0.000008 0.000006 -9.920550 7.676910 -65.359800 -11.754300 -0.000006 -0.000006 -0.011605 0.282934 -5.075070
0.000000 0.000000 0.000000 0.000000 0.000000 -0.000000 2.581960 93.183200 -0.872924 88.979600 1.757170 2.091140 15.735700 0.000005 -0.000001 101.741000 86.507800 -100.572000 8.984550 -0.406207 -0.000000 -0.940199 1.332180 2.346660 16.377300 -0.000001 -0.000001 3.944100 4.169790 -0.918269 6.456720 -0.000001 -0.000000 -12.793200 3.302820 3.904020 12.994200 -0.242716 4.980390 -93.085500 8.221930 -69.347400 5.348090 -0.000007 -0.000001 -64.522000 -10.882500 -19.423700 24.328600 0.000019 0.000005 -0.000157 41.299600 -0.000006 22.291600 -0.000001 0.000005 -31.022500 5.154180 3.845820 12.994500 -0.242716 -4.980390 87.740300 6.534520 -70.876400 -5.348130 -0.000001 -0.000004 -67.906900 32.139800 -5.294300 -24.328900 0.000322 -0.000009 1.139810 3.237510 -19.424000 -22.291500 -0.000108 -0.000004 -0.502046 5.299700 0.080671 -2.192480 -6.469440 -0.000000 -176.041000 -10.259600 -0.833006 39.081100 -0.000007 -0.000012 0.037099 -0.127298 16.248300 40.985400 -0.000006 -0.000013 2.243500 17.470700 -68.633800 11.754300 -0.000000 0.000003 -0.001264 0.186717 -9.002340 -2.192510 6.469440 -0.000001 173.350000 10.684300 -177.102000 -39.081100 -0.002282 -0.040193 0.000386 0.017058 9.820620 -40.985400 0.000008 0.000006 -11.130100 7.754280 -63.890600 -11.754300 -0.000006 -0.000006 -0.011390 0.281416 -5.137240
